<svg width="370" height="541" viewBox="0 0 370 541" fill="none" xmlns="http://www.w3.org/2000/svg">
<path opacity="0.18" d="M328.449 393.074C317.219 382.004 306.289 370.554 296.419 358.254C315.549 369.934 333.309 383.754 350.609 397.944C355.629 402.064 362.609 408.114 367.569 412.434C370.169 414.674 370.459 418.614 368.209 421.204C366.269 423.444 363.079 423.944 360.579 422.604C354.189 419.194 347.809 415.764 341.519 412.174C325.719 403.204 310.219 393.714 295.399 383.184C292.419 381.064 289.469 378.904 286.589 376.604C290.109 377.684 293.569 378.894 296.999 380.154C307.649 384.084 318.129 388.424 328.469 393.084L328.449 393.074ZM280.629 442.104C272.629 434.924 264.379 428.004 255.769 421.534C253.159 419.574 250.509 417.654 247.749 415.834C249.509 418.634 251.379 421.324 253.279 423.974C266.569 442.374 281.679 459.354 297.529 475.564C302.619 480.564 310.719 474.654 307.429 468.254C295.229 445.864 282.069 423.764 265.909 403.954C269.939 416.994 274.999 429.684 280.639 442.104H280.629ZM229.139 513.584C229.049 507.004 228.949 497.774 228.679 491.284C227.789 468.934 226.319 446.474 222.369 424.424C219.719 440.194 218.419 456.194 217.609 472.164C213.979 460.684 209.999 449.314 205.559 438.164C204.169 434.714 202.739 431.274 201.169 427.874C201.659 435.324 202.619 442.694 203.659 450.064C206.319 468.324 210.009 486.474 214.259 504.414L216.899 515.154C217.579 517.904 220.069 519.924 223.019 519.884C226.449 519.834 229.199 517.014 229.149 513.584H229.139ZM140.889 509.574C155.629 481.164 169.939 452.354 181.899 422.634C168.749 440.944 156.649 460.084 145.009 479.404C149.939 463.184 154.539 446.874 158.629 430.494C159.919 425.344 161.119 420.164 162.239 414.944C157.479 424.464 153.139 434.154 148.889 443.894C138.379 468.144 128.779 492.924 119.789 517.754L114.469 532.704C113.459 535.544 114.629 538.774 117.359 540.254C120.379 541.894 124.149 540.774 125.789 537.754C130.289 529.464 136.609 517.834 140.899 509.564L140.889 509.574ZM74.3792 482.024C100.449 459.764 126.239 437.154 150.779 413.184C126.489 429.344 102.969 446.604 79.7292 464.234C95.0492 447.084 110.079 429.684 124.569 412.084C128.989 406.714 133.349 401.284 137.629 395.794C127.099 404.904 116.899 414.344 106.759 423.864C86.6292 442.834 66.7691 462.524 47.4091 482.284C40.1491 489.704 25.6992 504.724 18.5492 512.264C16.4092 514.494 16.2192 518.034 18.2292 520.484C20.3992 523.144 24.3091 523.534 26.9691 521.364C42.4091 508.794 59.3292 494.874 74.3892 482.014L74.3792 482.024ZM133.859 388.044C91.9992 401.124 50.2891 415.584 8.93915 430.444C42.4291 413.244 75.6992 395.614 108.519 377.414C112.939 374.914 117.369 372.464 121.769 369.924C113.729 373.164 101.739 378.264 93.6992 381.684C37.8192 405.634 -17.3108 431.254 -72.1308 457.514L-99.4808 470.734C-102.351 472.134 -103.741 475.534 -102.571 478.564C-101.331 481.764 -97.7308 483.364 -94.5308 482.124C-62.4408 469.824 -25.7108 455.434 6.00916 442.574C48.8292 425.144 91.8191 407.264 133.869 388.034L133.859 388.044ZM48.7692 356.144C71.5392 351.114 94.3192 346.114 116.989 340.564C70.6992 346.384 24.6092 353.484 -21.4308 360.914C-54.4508 366.244 -91.7308 372.694 -124.811 378.544L-159.211 384.754C-162.371 385.334 -164.631 388.264 -164.291 391.524C-163.931 394.944 -160.871 397.414 -157.461 397.054C-64.9108 387.374 28.6292 376.704 120.519 362.304C70.4492 364.754 20.1592 368.364 -30.0708 372.624C-3.62083 367.294 22.7592 361.794 48.7692 356.134V356.144ZM-56.3608 299.674C-26.4508 301.924 3.41916 304.024 32.9492 305.884C60.8792 307.574 88.7991 309.304 116.779 310.464C61.3391 302.784 5.74916 296.414 -49.8708 290.354C-89.7708 286.014 -134.951 281.534 -175.081 277.674L-216.851 273.794C-220.101 273.494 -223.081 275.784 -223.571 279.054C-224.081 282.454 -221.751 285.614 -218.351 286.134C-108.081 302.874 3.60917 318.934 114.429 330.934C57.8892 319.664 0.819168 309.364 -56.3508 299.674H-56.3608ZM-78.2408 212.384C-41.4608 224.874 -4.60086 237.214 32.0891 249.244C63.8091 259.554 95.5092 269.904 127.399 279.724C65.4192 255.034 2.99917 231.564 -59.5508 208.404C-104.421 191.794 -155.321 173.404 -200.571 157.194L-247.691 140.444C-250.781 139.354 -254.241 140.854 -255.521 143.914C-256.841 147.084 -255.341 150.724 -252.161 152.044C-129.611 202.994 -4.58086 254.044 119.619 300.524C54.4691 270.414 -11.7708 241.094 -78.2408 212.394V212.384ZM-37.8608 134.194C-7.89083 153.854 22.1091 173.384 51.5891 192.354C82.3091 212.054 113.019 231.774 144.029 251.044C84.9891 208.104 25.2092 166.234 -34.7508 124.604C-91.9208 84.9645 -157.671 40.1345 -215.491 1.08445C-222.471 -3.20555 -228.931 6.28445 -222.671 11.2345C-103.941 98.9344 17.3991 187.454 138.839 271.154C80.8191 225.074 21.6692 179.404 -37.8608 134.194Z" fill="url(#paint0_radial_3454_47027)"/>
<defs>
<radialGradient id="paint0_radial_3454_47027" cx="0" cy="0" r="1" gradientUnits="userSpaceOnUse" gradientTransform="translate(181.275 366.368) rotate(68.26) scale(289.5 289.5)">
<stop stop-color="#F47920"/>
<stop offset="0.65" stop-color="#DC3069"/>
<stop offset="1" stop-color="#D20F8C"/>
</radialGradient>
</defs>
</svg>
